<svg id="visual" viewBox="0 0 675 900" width="675" height="900" xmlns="http://www.w3.org/2000/svg" xmlns:xlink="http://www.w3.org/1999/xlink" version="1.1"><rect x="0" y="0" width="675" height="900" fill="#2a303c"></rect><path d="M0 778L16 776C32 774 64 770 96.2 767.7C128.3 765.3 160.7 764.7 192.8 763.7C225 762.7 257 761.3 289.2 766C321.3 770.7 353.7 781.3 385.8 785.5C418 789.7 450 787.3 482.2 784.5C514.3 781.7 546.7 778.3 578.8 778.2C611 778 643 781 659 782.5L675 784L675 901L659 901C643 901 611 901 578.8 901C546.7 901 514.3 901 482.2 901C450 901 418 901 385.8 901C353.7 901 321.3 901 289.2 901C257 901 225 901 192.8 901C160.7 901 128.3 901 96.2 901C64 901 32 901 16 901L0 901Z" fill="#1fb2a5"></path><path d="M0 820L16 818.8C32 817.7 64 815.3 96.2 816.2C128.3 817 160.7 821 192.8 822.3C225 823.7 257 822.3 289.2 821.7C321.3 821 353.7 821 385.8 817.2C418 813.3 450 805.7 482.2 802.5C514.3 799.3 546.7 800.7 578.8 803.3C611 806 643 810 659 812L675 814L675 901L659 901C643 901 611 901 578.8 901C546.7 901 514.3 901 482.2 901C450 901 418 901 385.8 901C353.7 901 321.3 901 289.2 901C257 901 225 901 192.8 901C160.7 901 128.3 901 96.2 901C64 901 32 901 16 901L0 901Z" fill="#018f9a"></path><path d="M0 805L16 808.5C32 812 64 819 96.2 818.5C128.3 818 160.7 810 192.8 806.7C225 803.3 257 804.7 289.2 809.8C321.3 815 353.7 824 385.8 828.5C418 833 450 833 482.2 830C514.3 827 546.7 821 578.8 815.8C611 810.7 643 806.3 659 804.2L675 802L675 901L659 901C643 901 611 901 578.8 901C546.7 901 514.3 901 482.2 901C450 901 418 901 385.8 901C353.7 901 321.3 901 289.2 901C257 901 225 901 192.8 901C160.7 901 128.3 901 96.2 901C64 901 32 901 16 901L0 901Z" fill="#226d82"></path><path d="M0 844L16 842.2C32 840.3 64 836.7 96.2 835.5C128.3 834.3 160.7 835.7 192.8 836C225 836.3 257 835.7 289.2 838.8C321.3 842 353.7 849 385.8 851.3C418 853.7 450 851.3 482.2 851.2C514.3 851 546.7 853 578.8 850.3C611 847.7 643 840.3 659 836.7L675 833L675 901L659 901C643 901 611 901 578.8 901C546.7 901 514.3 901 482.2 901C450 901 418 901 385.8 901C353.7 901 321.3 901 289.2 901C257 901 225 901 192.8 901C160.7 901 128.3 901 96.2 901C64 901 32 901 16 901L0 901Z" fill="#2f4d61"></path><path d="M0 855L16 859.8C32 864.7 64 874.3 96.2 878C128.3 881.7 160.7 879.3 192.8 874.8C225 870.3 257 863.7 289.2 859.8C321.3 856 353.7 855 385.8 857C418 859 450 864 482.2 866C514.3 868 546.7 867 578.8 866C611 865 643 864 659 863.5L675 863L675 901L659 901C643 901 611 901 578.8 901C546.7 901 514.3 901 482.2 901C450 901 418 901 385.8 901C353.7 901 321.3 901 289.2 901C257 901 225 901 192.8 901C160.7 901 128.3 901 96.2 901C64 901 32 901 16 901L0 901Z" fill="#2a303c"></path></svg>