<svg id="visual" viewBox="0 0 960 540" width="960" height="540" xmlns="http://www.w3.org/2000/svg" xmlns:xlink="http://www.w3.org/1999/xlink" version="1.1"><rect x="0" y="0" width="960" height="540" fill="#2a303c"></rect><path d="M0 430L22.8 428.2C45.7 426.3 91.3 422.7 137 420.7C182.7 418.7 228.3 418.3 274 417.5C319.7 416.7 365.3 415.3 411.2 419.5C457 423.7 503 433.3 548.8 437.2C594.7 441 640.3 439 686 436.3C731.7 433.7 777.3 430.3 823 430.2C868.7 430 914.3 433 937.2 434.5L960 436L960 541L937.2 541C914.3 541 868.7 541 823 541C777.3 541 731.7 541 686 541C640.3 541 594.7 541 548.8 541C503 541 457 541 411.2 541C365.3 541 319.7 541 274 541C228.3 541 182.7 541 137 541C91.3 541 45.7 541 22.8 541L0 541Z" fill="#1fb2a5"></path><path d="M0 468L22.8 467C45.7 466 91.3 464 137 464.8C182.7 465.7 228.3 469.3 274 470.5C319.7 471.7 365.3 470.3 411.2 469.7C457 469 503 469 548.8 465.7C594.7 462.3 640.3 455.7 686 452.7C731.7 449.7 777.3 450.3 823 452.5C868.7 454.7 914.3 458.3 937.2 460.2L960 462L960 541L937.2 541C914.3 541 868.7 541 823 541C777.3 541 731.7 541 686 541C640.3 541 594.7 541 548.8 541C503 541 457 541 411.2 541C365.3 541 319.7 541 274 541C228.3 541 182.7 541 137 541C91.3 541 45.7 541 22.8 541L0 541Z" fill="#018f9a"></path><path d="M0 455L22.8 458.2C45.7 461.3 91.3 467.7 137 467.2C182.7 466.7 228.3 459.3 274 456.2C319.7 453 365.3 454 411.2 458.7C457 463.3 503 471.7 548.8 475.8C594.7 480 640.3 480 686 477.3C731.7 474.7 777.3 469.3 823 464.7C868.7 460 914.3 456 937.2 454L960 452L960 541L937.2 541C914.3 541 868.7 541 823 541C777.3 541 731.7 541 686 541C640.3 541 594.7 541 548.8 541C503 541 457 541 411.2 541C365.3 541 319.7 541 274 541C228.3 541 182.7 541 137 541C91.3 541 45.7 541 22.8 541L0 541Z" fill="#226d82"></path><path d="M0 489L22.8 487.5C45.7 486 91.3 483 137 482C182.7 481 228.3 482 274 482.3C319.7 482.7 365.3 482.3 411.2 485.2C457 488 503 494 548.8 496C594.7 498 640.3 496 686 496C731.7 496 777.3 498 823 495.7C868.7 493.3 914.3 486.7 937.2 483.3L960 480L960 541L937.2 541C914.3 541 868.7 541 823 541C777.3 541 731.7 541 686 541C640.3 541 594.7 541 548.8 541C503 541 457 541 411.2 541C365.3 541 319.7 541 274 541C228.3 541 182.7 541 137 541C91.3 541 45.7 541 22.8 541L0 541Z" fill="#2f4d61"></path><path d="M0 499L22.8 503.3C45.7 507.7 91.3 516.3 137 519.7C182.7 523 228.3 521 274 517C319.7 513 365.3 507 411.2 503.7C457 500.3 503 499.7 548.8 501.5C594.7 503.3 640.3 507.7 686 509.3C731.7 511 777.3 510 823 509.2C868.7 508.3 914.3 507.7 937.2 507.3L960 507L960 541L937.2 541C914.3 541 868.7 541 823 541C777.3 541 731.7 541 686 541C640.3 541 594.7 541 548.8 541C503 541 457 541 411.2 541C365.3 541 319.7 541 274 541C228.3 541 182.7 541 137 541C91.3 541 45.7 541 22.8 541L0 541Z" fill="#2a303c"></path></svg>