<svg id="visual" viewBox="0 0 900 450" width="900" height="450" xmlns="http://www.w3.org/2000/svg" xmlns:xlink="http://www.w3.org/1999/xlink" version="1.1"><rect x="0" y="0" width="900" height="450" fill="#2a303c"></rect><path d="M0 358L21.5 356.5C43 355 86 352 128.8 350.3C171.7 348.7 214.3 348.3 257.2 347.7C300 347 343 346 385.8 349.5C428.7 353 471.3 361 514.2 364.2C557 367.3 600 365.7 642.8 363.5C685.7 361.3 728.3 358.7 771.2 358.5C814 358.3 857 360.7 878.5 361.8L900 363L900 451L878.5 451C857 451 814 451 771.2 451C728.3 451 685.7 451 642.8 451C600 451 557 451 514.2 451C471.3 451 428.7 451 385.8 451C343 451 300 451 257.2 451C214.3 451 171.7 451 128.8 451C86 451 43 451 21.5 451L0 451Z" fill="#1fb2a5"></path><path d="M0 390L21.5 389.2C43 388.3 86 386.7 128.8 387.3C171.7 388 214.3 391 257.2 392C300 393 343 392 385.8 391.3C428.7 390.7 471.3 390.3 514.2 387.5C557 384.7 600 379.3 642.8 377C685.7 374.7 728.3 375.3 771.2 377.2C814 379 857 382 878.5 383.5L900 385L900 451L878.5 451C857 451 814 451 771.2 451C728.3 451 685.7 451 642.8 451C600 451 557 451 514.2 451C471.3 451 428.7 451 385.8 451C343 451 300 451 257.2 451C214.3 451 171.7 451 128.8 451C86 451 43 451 21.5 451L0 451Z" fill="#018f9a"></path><path d="M0 379L21.5 381.5C43 384 86 389 128.8 388.5C171.7 388 214.3 382 257.2 379.5C300 377 343 378 385.8 382C428.7 386 471.3 393 514.2 396.3C557 399.7 600 399.3 642.8 397C685.7 394.7 728.3 390.3 771.2 386.5C814 382.7 857 379.3 878.5 377.7L900 376L900 451L878.5 451C857 451 814 451 771.2 451C728.3 451 685.7 451 642.8 451C600 451 557 451 514.2 451C471.3 451 428.7 451 385.8 451C343 451 300 451 257.2 451C214.3 451 171.7 451 128.8 451C86 451 43 451 21.5 451L0 451Z" fill="#226d82"></path><path d="M0 408L21.5 406.7C43 405.3 86 402.7 128.8 401.7C171.7 400.7 214.3 401.3 257.2 401.5C300 401.7 343 401.3 385.8 403.7C428.7 406 471.3 411 514.2 412.8C557 414.7 600 413.3 642.8 413.3C685.7 413.3 728.3 414.7 771.2 412.7C814 410.7 857 405.3 878.5 402.7L900 400L900 451L878.5 451C857 451 814 451 771.2 451C728.3 451 685.7 451 642.8 451C600 451 557 451 514.2 451C471.3 451 428.7 451 385.8 451C343 451 300 451 257.2 451C214.3 451 171.7 451 128.8 451C86 451 43 451 21.5 451L0 451Z" fill="#2f4d61"></path><path d="M0 416L21.5 419.7C43 423.3 86 430.7 128.8 433.5C171.7 436.3 214.3 434.7 257.2 431.2C300 427.7 343 422.3 385.8 419.5C428.7 416.7 471.3 416.3 514.2 418C557 419.7 600 423.3 642.8 424.7C685.7 426 728.3 425 771.2 424.2C814 423.3 857 422.7 878.5 422.3L900 422L900 451L878.5 451C857 451 814 451 771.2 451C728.3 451 685.7 451 642.8 451C600 451 557 451 514.2 451C471.3 451 428.7 451 385.8 451C343 451 300 451 257.2 451C214.3 451 171.7 451 128.8 451C86 451 43 451 21.5 451L0 451Z" fill="#2a303c"></path></svg>