<svg id="visual" viewBox="0 0 900 450" width="900" height="450" xmlns="http://www.w3.org/2000/svg" xmlns:xlink="http://www.w3.org/1999/xlink" version="1.1"><rect x="0" y="0" width="900" height="450" fill="#2a303c"></rect><path d="M0 316L21.5 307.3C43 298.7 86 281.3 128.8 281.3C171.7 281.3 214.3 298.7 257.2 308.5C300 318.3 343 320.7 385.8 319.7C428.7 318.7 471.3 314.3 514.2 308.2C557 302 600 294 642.8 288.3C685.7 282.7 728.3 279.3 771.2 277.5C814 275.7 857 275.3 878.5 275.2L900 275L900 451L878.5 451C857 451 814 451 771.2 451C728.3 451 685.7 451 642.8 451C600 451 557 451 514.2 451C471.3 451 428.7 451 385.8 451C343 451 300 451 257.2 451C214.3 451 171.7 451 128.8 451C86 451 43 451 21.5 451L0 451Z" fill="#2a303c"></path><path d="M0 335L21.5 336.8C43 338.7 86 342.3 128.8 342.2C171.7 342 214.3 338 257.2 332.2C300 326.3 343 318.7 385.8 322.2C428.7 325.7 471.3 340.3 514.2 341.7C557 343 600 331 642.8 329.5C685.7 328 728.3 337 771.2 337.3C814 337.7 857 329.3 878.5 325.2L900 321L900 451L878.5 451C857 451 814 451 771.2 451C728.3 451 685.7 451 642.8 451C600 451 557 451 514.2 451C471.3 451 428.7 451 385.8 451C343 451 300 451 257.2 451C214.3 451 171.7 451 128.8 451C86 451 43 451 21.5 451L0 451Z" fill="#2f4d61"></path><path d="M0 353L21.5 354.8C43 356.7 86 360.3 128.8 362.8C171.7 365.3 214.3 366.7 257.2 368.2C300 369.7 343 371.3 385.8 367.7C428.7 364 471.3 355 514.2 354C557 353 600 360 642.8 366C685.7 372 728.3 377 771.2 377.2C814 377.3 857 372.7 878.5 370.3L900 368L900 451L878.5 451C857 451 814 451 771.2 451C728.3 451 685.7 451 642.8 451C600 451 557 451 514.2 451C471.3 451 428.7 451 385.8 451C343 451 300 451 257.2 451C214.3 451 171.7 451 128.8 451C86 451 43 451 21.5 451L0 451Z" fill="#226d82"></path><path d="M0 369L21.5 372C43 375 86 381 128.8 384.5C171.7 388 214.3 389 257.2 385.7C300 382.3 343 374.7 385.8 371.8C428.7 369 471.3 371 514.2 375C557 379 600 385 642.8 384.7C685.7 384.3 728.3 377.7 771.2 377.2C814 376.7 857 382.3 878.5 385.2L900 388L900 451L878.5 451C857 451 814 451 771.2 451C728.3 451 685.7 451 642.8 451C600 451 557 451 514.2 451C471.3 451 428.7 451 385.8 451C343 451 300 451 257.2 451C214.3 451 171.7 451 128.8 451C86 451 43 451 21.5 451L0 451Z" fill="#018f9a"></path><path d="M0 418L21.5 417.2C43 416.3 86 414.7 128.8 416.3C171.7 418 214.3 423 257.2 421.7C300 420.3 343 412.7 385.8 407.5C428.7 402.3 471.3 399.7 514.2 401.5C557 403.3 600 409.7 642.8 413.5C685.7 417.3 728.3 418.7 771.2 416C814 413.3 857 406.7 878.5 403.3L900 400L900 451L878.5 451C857 451 814 451 771.2 451C728.3 451 685.7 451 642.8 451C600 451 557 451 514.2 451C471.3 451 428.7 451 385.8 451C343 451 300 451 257.2 451C214.3 451 171.7 451 128.8 451C86 451 43 451 21.5 451L0 451Z" fill="#1fb2a5"></path></svg>