<svg id="visual" viewBox="0 0 540 960" width="540" height="960" xmlns="http://www.w3.org/2000/svg" xmlns:xlink="http://www.w3.org/1999/xlink" version="1.1"><rect x="0" y="0" width="540" height="960" fill="#2a303c"></rect><path d="M0 895L12.8 893.8C25.7 892.7 51.3 890.3 77 889C102.7 887.7 128.3 887.3 154 886.8C179.7 886.3 205.3 885.7 231.2 888.2C257 890.7 283 896.3 308.8 898.5C334.7 900.7 360.3 899.3 386 897.8C411.7 896.3 437.3 894.7 463 894.7C488.7 894.7 514.3 896.3 527.2 897.2L540 898L540 961L527.2 961C514.3 961 488.7 961 463 961C437.3 961 411.7 961 386 961C360.3 961 334.7 961 308.8 961C283 961 257 961 231.2 961C205.3 961 179.7 961 154 961C128.3 961 102.7 961 77 961C51.3 961 25.7 961 12.8 961L0 961Z" fill="#1fb2a5"></path><path d="M0 917L12.8 916.3C25.7 915.7 51.3 914.3 77 914.8C102.7 915.3 128.3 917.7 154 918.5C179.7 919.3 205.3 918.7 231.2 918.2C257 917.7 283 917.3 308.8 915.2C334.7 913 360.3 909 386 907.3C411.7 905.7 437.3 906.3 463 907.8C488.7 909.3 514.3 911.7 527.2 912.8L540 914L540 961L527.2 961C514.3 961 488.7 961 463 961C437.3 961 411.7 961 386 961C360.3 961 334.7 961 308.8 961C283 961 257 961 231.2 961C205.3 961 179.7 961 154 961C128.3 961 102.7 961 77 961C51.3 961 25.7 961 12.8 961L0 961Z" fill="#018f9a"></path><path d="M0 909L12.8 910.8C25.7 912.7 51.3 916.3 77 916C102.7 915.7 128.3 911.3 154 909.7C179.7 908 205.3 909 231.2 911.8C257 914.7 283 919.3 308.8 921.7C334.7 924 360.3 924 386 922.3C411.7 920.7 437.3 917.3 463 914.5C488.7 911.7 514.3 909.3 527.2 908.2L540 907L540 961L527.2 961C514.3 961 488.7 961 463 961C437.3 961 411.7 961 386 961C360.3 961 334.7 961 308.8 961C283 961 257 961 231.2 961C205.3 961 179.7 961 154 961C128.3 961 102.7 961 77 961C51.3 961 25.7 961 12.8 961L0 961Z" fill="#226d82"></path><path d="M0 930L12.8 929C25.7 928 51.3 926 77 925.3C102.7 924.7 128.3 925.3 154 925.5C179.7 925.7 205.3 925.3 231.2 927C257 928.7 283 932.3 308.8 933.7C334.7 935 360.3 934 386 934C411.7 934 437.3 935 463 933.5C488.7 932 514.3 928 527.2 926L540 924L540 961L527.2 961C514.3 961 488.7 961 463 961C437.3 961 411.7 961 386 961C360.3 961 334.7 961 308.8 961C283 961 257 961 231.2 961C205.3 961 179.7 961 154 961C128.3 961 102.7 961 77 961C51.3 961 25.7 961 12.8 961L0 961Z" fill="#2f4d61"></path><path d="M0 935L12.8 937.7C25.7 940.3 51.3 945.7 77 947.7C102.7 949.7 128.3 948.3 154 946C179.7 943.7 205.3 940.3 231.2 938.3C257 936.3 283 935.7 308.8 936.7C334.7 937.7 360.3 940.3 386 941.3C411.7 942.3 437.3 941.7 463 941.2C488.7 940.7 514.3 940.3 527.2 940.2L540 940L540 961L527.2 961C514.3 961 488.7 961 463 961C437.3 961 411.7 961 386 961C360.3 961 334.7 961 308.8 961C283 961 257 961 231.2 961C205.3 961 179.7 961 154 961C128.3 961 102.7 961 77 961C51.3 961 25.7 961 12.8 961L0 961Z" fill="#2a303c"></path></svg>