<svg id="visual" viewBox="0 0 900 600" width="900" height="600" xmlns="http://www.w3.org/2000/svg" xmlns:xlink="http://www.w3.org/1999/xlink" version="1.1"><rect x="0" y="0" width="900" height="600" fill="#2a303c"></rect><path d="M0 478L21.5 476C43 474 86 470 128.8 467.7C171.7 465.3 214.3 464.7 257.2 463.7C300 462.7 343 461.3 385.8 466C428.7 470.7 471.3 481.3 514.2 485.5C557 489.7 600 487.3 642.8 484.5C685.7 481.7 728.3 478.3 771.2 478.2C814 478 857 481 878.5 482.5L900 484L900 601L878.5 601C857 601 814 601 771.2 601C728.3 601 685.7 601 642.8 601C600 601 557 601 514.2 601C471.3 601 428.7 601 385.8 601C343 601 300 601 257.2 601C214.3 601 171.7 601 128.8 601C86 601 43 601 21.5 601L0 601Z" fill="#1fb2a5"></path><path d="M0 520L21.5 518.8C43 517.7 86 515.3 128.8 516.2C171.7 517 214.3 521 257.2 522.3C300 523.7 343 522.3 385.8 521.7C428.7 521 471.3 521 514.2 517.2C557 513.3 600 505.7 642.8 502.5C685.7 499.3 728.3 500.7 771.2 503.3C814 506 857 510 878.5 512L900 514L900 601L878.5 601C857 601 814 601 771.2 601C728.3 601 685.7 601 642.8 601C600 601 557 601 514.2 601C471.3 601 428.7 601 385.8 601C343 601 300 601 257.2 601C214.3 601 171.7 601 128.8 601C86 601 43 601 21.5 601L0 601Z" fill="#018f9a"></path><path d="M0 505L21.5 508.5C43 512 86 519 128.8 518.5C171.7 518 214.3 510 257.2 506.7C300 503.3 343 504.7 385.8 509.8C428.7 515 471.3 524 514.2 528.5C557 533 600 533 642.8 530C685.7 527 728.3 521 771.2 515.8C814 510.7 857 506.3 878.5 504.2L900 502L900 601L878.5 601C857 601 814 601 771.2 601C728.3 601 685.7 601 642.8 601C600 601 557 601 514.2 601C471.3 601 428.7 601 385.8 601C343 601 300 601 257.2 601C214.3 601 171.7 601 128.8 601C86 601 43 601 21.5 601L0 601Z" fill="#226d82"></path><path d="M0 544L21.5 542.2C43 540.3 86 536.7 128.8 535.5C171.7 534.3 214.3 535.7 257.2 536C300 536.3 343 535.7 385.8 538.8C428.7 542 471.3 549 514.2 551.3C557 553.7 600 551.3 642.8 551.2C685.7 551 728.3 553 771.2 550.3C814 547.7 857 540.3 878.5 536.7L900 533L900 601L878.5 601C857 601 814 601 771.2 601C728.3 601 685.7 601 642.8 601C600 601 557 601 514.2 601C471.3 601 428.7 601 385.8 601C343 601 300 601 257.2 601C214.3 601 171.7 601 128.8 601C86 601 43 601 21.5 601L0 601Z" fill="#2f4d61"></path><path d="M0 555L21.5 559.8C43 564.7 86 574.3 128.8 578C171.7 581.7 214.3 579.3 257.2 574.8C300 570.3 343 563.7 385.8 559.8C428.7 556 471.3 555 514.2 557C557 559 600 564 642.8 566C685.7 568 728.3 567 771.2 566C814 565 857 564 878.5 563.5L900 563L900 601L878.5 601C857 601 814 601 771.2 601C728.3 601 685.7 601 642.8 601C600 601 557 601 514.2 601C471.3 601 428.7 601 385.8 601C343 601 300 601 257.2 601C214.3 601 171.7 601 128.8 601C86 601 43 601 21.5 601L0 601Z" fill="#2a303c"></path></svg>