<svg id="visual" viewBox="0 0 900 450" width="900" height="450" xmlns="http://www.w3.org/2000/svg" xmlns:xlink="http://www.w3.org/1999/xlink" version="1.1"><rect x="0" y="0" width="900" height="450" fill="#2a303c"></rect><path d="M0 132L21.5 140.7C43 149.3 86 166.7 128.8 166.7C171.7 166.7 214.3 149.3 257.2 139.5C300 129.7 343 127.3 385.8 128.3C428.7 129.3 471.3 133.7 514.2 139.8C557 146 600 154 642.8 159.7C685.7 165.3 728.3 168.7 771.2 170.5C814 172.3 857 172.7 878.5 172.8L900 173L900 0L878.5 0C857 0 814 0 771.2 0C728.3 0 685.7 0 642.8 0C600 0 557 0 514.2 0C471.3 0 428.7 0 385.8 0C343 0 300 0 257.2 0C214.3 0 171.7 0 128.8 0C86 0 43 0 21.5 0L0 0Z" fill="#2a303c"></path><path d="M0 113L21.5 111.2C43 109.3 86 105.7 128.8 105.8C171.7 106 214.3 110 257.2 115.8C300 121.7 343 129.3 385.8 125.8C428.7 122.3 471.3 107.7 514.2 106.3C557 105 600 117 642.8 118.5C685.7 120 728.3 111 771.2 110.7C814 110.3 857 118.7 878.5 122.8L900 127L900 0L878.5 0C857 0 814 0 771.2 0C728.3 0 685.7 0 642.8 0C600 0 557 0 514.2 0C471.3 0 428.7 0 385.8 0C343 0 300 0 257.2 0C214.3 0 171.7 0 128.8 0C86 0 43 0 21.5 0L0 0Z" fill="#2f4d61"></path><path d="M0 95L21.5 93.2C43 91.3 86 87.7 128.8 85.2C171.7 82.7 214.3 81.3 257.2 79.8C300 78.3 343 76.7 385.8 80.3C428.7 84 471.3 93 514.2 94C557 95 600 88 642.8 82C685.7 76 728.3 71 771.2 70.8C814 70.7 857 75.3 878.5 77.7L900 80L900 0L878.5 0C857 0 814 0 771.2 0C728.3 0 685.7 0 642.8 0C600 0 557 0 514.2 0C471.3 0 428.7 0 385.8 0C343 0 300 0 257.2 0C214.3 0 171.7 0 128.8 0C86 0 43 0 21.5 0L0 0Z" fill="#226d82"></path><path d="M0 79L21.5 76C43 73 86 67 128.8 63.5C171.7 60 214.3 59 257.2 62.3C300 65.7 343 73.3 385.8 76.2C428.7 79 471.3 77 514.2 73C557 69 600 63 642.8 63.3C685.7 63.7 728.3 70.3 771.2 70.8C814 71.3 857 65.7 878.5 62.8L900 60L900 0L878.5 0C857 0 814 0 771.2 0C728.3 0 685.7 0 642.8 0C600 0 557 0 514.2 0C471.3 0 428.7 0 385.8 0C343 0 300 0 257.2 0C214.3 0 171.7 0 128.8 0C86 0 43 0 21.5 0L0 0Z" fill="#018f9a"></path><path d="M0 30L21.5 30.8C43 31.7 86 33.3 128.8 31.7C171.7 30 214.3 25 257.2 26.3C300 27.7 343 35.3 385.8 40.5C428.7 45.7 471.3 48.3 514.2 46.5C557 44.7 600 38.3 642.8 34.5C685.7 30.7 728.3 29.3 771.2 32C814 34.7 857 41.3 878.5 44.7L900 48L900 0L878.5 0C857 0 814 0 771.2 0C728.3 0 685.7 0 642.8 0C600 0 557 0 514.2 0C471.3 0 428.7 0 385.8 0C343 0 300 0 257.2 0C214.3 0 171.7 0 128.8 0C86 0 43 0 21.5 0L0 0Z" fill="#1fb2a5"></path></svg>